<svg width="18" height="18" viewBox="0 0 18 18" fill="none" xmlns="http://www.w3.org/2000/svg">
<path d="M16.875 6.46875H14.857C14.7989 6.3044 14.6913 6.16208 14.5491 6.06136C14.4068 5.96064 14.2368 5.90645 14.0625 5.90625H9.5625C9.38818 5.90645 9.2182 5.96064 9.07593 6.06136C8.93366 6.16208 8.82607 6.3044 8.76797 6.46875H4.78125V3.65625C4.78125 3.50707 4.84051 3.36399 4.946 3.2585C5.05149 3.15301 5.19457 3.09375 5.34375 3.09375C5.47651 3.09366 5.60552 3.13777 5.71043 3.21912C5.81533 3.30048 5.89017 3.41445 5.92312 3.54305C5.96769 3.76235 6.09755 3.95496 6.28414 4.07852C6.47072 4.20207 6.69875 4.24644 6.91805 4.20188C7.13735 4.15731 7.32996 4.02745 7.45352 3.84086C7.57707 3.65428 7.62144 3.42625 7.57688 3.20695C7.4626 2.65935 7.14976 2.17338 6.69861 1.84264C6.24745 1.51191 5.68988 1.35978 5.13327 1.41556C4.57665 1.47135 4.06036 1.73109 3.68381 2.14479C3.30726 2.55848 3.09708 3.09686 3.09375 3.65625V6.46875H1.125C0.901224 6.46875 0.686612 6.55765 0.528379 6.71588C0.370145 6.87411 0.28125 7.08872 0.28125 7.3125V10.125C0.28271 11.1947 0.689961 12.2239 1.42078 13.005C2.1516 13.786 3.15155 14.2607 4.21875 14.3332V15.1875C4.21875 15.4113 4.30764 15.6259 4.46588 15.7841C4.62411 15.9424 4.83872 16.0312 5.0625 16.0312C5.28628 16.0312 5.50089 15.9424 5.65912 15.7841C5.81736 15.6259 5.90625 15.4113 5.90625 15.1875V14.3438H12.0938V15.1875C12.0938 15.4113 12.1826 15.6259 12.3409 15.7841C12.4991 15.9424 12.7137 16.0312 12.9375 16.0312C13.1613 16.0312 13.3759 15.9424 13.5341 15.7841C13.6924 15.6259 13.7812 15.4113 13.7812 15.1875V14.3332C14.8484 14.2607 15.8484 13.786 16.5792 13.005C17.31 12.2239 17.7173 11.1947 17.7188 10.125V7.3125C17.7188 7.08872 17.6299 6.87411 17.4716 6.71588C17.3134 6.55765 17.0988 6.46875 16.875 6.46875ZM10.4062 7.59375H13.2188V9.28125H10.4062V7.59375ZM16.0312 10.125C16.0312 10.7963 15.7646 11.4402 15.2899 11.9149C14.8152 12.3896 14.1713 12.6562 13.5 12.6562H4.5C3.82867 12.6562 3.18484 12.3896 2.71014 11.9149C2.23543 11.4402 1.96875 10.7963 1.96875 10.125V8.15625H8.71875V10.125C8.71875 10.3488 8.80764 10.5634 8.96588 10.7216C9.12411 10.8799 9.33872 10.9688 9.5625 10.9688H14.0625C14.2863 10.9688 14.5009 10.8799 14.6591 10.7216C14.8174 10.5634 14.9062 10.3488 14.9062 10.125V8.15625H16.0312V10.125Z" fill="#403F3F"/>
</svg>
