<svg width="18" height="18" viewBox="0 0 18 18" fill="none" xmlns="http://www.w3.org/2000/svg">
<path d="M14.9062 4.78125H2.53125V3.375C2.53125 3.15122 2.44236 2.93661 2.28412 2.77838C2.12589 2.62014 1.91128 2.53125 1.6875 2.53125C1.46372 2.53125 1.24911 2.62014 1.09088 2.77838C0.932645 2.93661 0.84375 3.15122 0.84375 3.375V14.625C0.84375 14.8488 0.932645 15.0634 1.09088 15.2216C1.24911 15.3799 1.46372 15.4688 1.6875 15.4688C1.91128 15.4688 2.12589 15.3799 2.28412 15.2216C2.44236 15.0634 2.53125 14.8488 2.53125 14.625V12.6562H16.3125V14.625C16.3125 14.8488 16.4014 15.0634 16.5596 15.2216C16.7179 15.3799 16.9325 15.4688 17.1562 15.4688C17.38 15.4688 17.5946 15.3799 17.7529 15.2216C17.9111 15.0634 18 14.8488 18 14.625V7.875C17.9991 7.05477 17.6728 6.2684 17.0928 5.68842C16.5128 5.10843 15.7265 4.78218 14.9062 4.78125ZM7.03125 10.9688H2.53125V6.46875H7.03125V10.9688ZM16.3125 10.9688H8.71875V6.46875H14.9062C15.2792 6.46875 15.6369 6.61691 15.9006 6.88063C16.1643 7.14435 16.3125 7.50204 16.3125 7.875V10.9688Z" fill="#656565"/>
</svg>
