<svg width="22" height="22" viewBox="0 0 22 22" fill="none" xmlns="http://www.w3.org/2000/svg">
<path d="M20.3203 8.25469C19.9903 7.91063 19.65 7.55531 19.5384 7.28625C19.4391 7.04625 19.4316 6.55219 19.425 6.11719C19.4109 5.17969 19.3931 4.01344 18.5644 3.18563C17.7356 2.35781 16.5703 2.34187 15.6328 2.325C15.1978 2.31844 14.7037 2.31094 14.4637 2.21156C14.1947 2.1 13.8394 1.75969 13.4953 1.42969C12.8316 0.793125 12.0047 0 10.875 0C9.74531 0 8.91844 0.793125 8.25469 1.42969C7.91063 1.75969 7.55531 2.1 7.28625 2.21156C7.04625 2.31094 6.55219 2.31844 6.11719 2.325C5.17969 2.34375 4.01344 2.35687 3.1875 3.1875C2.36156 4.01813 2.34375 5.17969 2.325 6.11719C2.31844 6.55219 2.31094 7.04625 2.21156 7.28625C2.1 7.55531 1.75969 7.91063 1.42969 8.25469C0.793125 8.91844 0 9.75 0 10.875C0 12 0.793125 12.8316 1.42969 13.5C1.75969 13.8441 2.1 14.1994 2.21156 14.4684C2.31094 14.7084 2.31844 15.2025 2.325 15.6375C2.33906 16.575 2.35687 17.7413 3.18563 18.5691C4.01437 19.3969 5.17969 19.4128 6.11719 19.4297C6.55219 19.4363 7.04625 19.4438 7.28625 19.5431C7.55531 19.6547 7.91063 19.995 8.25469 20.325C8.91844 20.9569 9.75 21.75 10.875 21.75C12 21.75 12.8316 20.9569 13.4953 20.3203C13.8394 19.9903 14.1947 19.65 14.4637 19.5384C14.7037 19.4391 15.1978 19.4316 15.6328 19.425C16.5703 19.4109 17.7366 19.3931 18.5644 18.5644C19.3922 17.7356 19.4081 16.5703 19.425 15.6328C19.4316 15.1978 19.4391 14.7037 19.5384 14.4637C19.65 14.1947 19.9903 13.8394 20.3203 13.4953C20.9569 12.8316 21.75 12.0047 21.75 10.875C21.75 9.74531 20.9569 8.91844 20.3203 8.25469ZM18.6966 11.9381C18.2447 12.4069 17.7328 12.9431 17.46 13.6031C17.1956 14.2406 17.1853 14.9306 17.1788 15.5991C17.1713 16.1016 17.1609 16.7906 16.9772 16.9734C16.7934 17.1562 16.1053 17.1675 15.6028 17.175C14.9344 17.1853 14.2444 17.1956 13.6069 17.4562C12.9506 17.7291 12.4134 18.2409 11.9419 18.6928C11.6044 19.0163 11.1 19.5 10.875 19.5C10.65 19.5 10.1456 19.0162 9.81188 18.6966C9.34313 18.2447 8.80688 17.7328 8.14688 17.46C7.50938 17.1956 6.81938 17.1853 6.15094 17.1788C5.64844 17.1713 4.95937 17.1609 4.77656 16.9772C4.59375 16.7934 4.5825 16.1053 4.575 15.6028C4.56469 14.9344 4.55437 14.2444 4.29375 13.6069C4.02094 12.9506 3.50906 12.4134 3.05719 11.9419C2.73375 11.6044 2.25 11.1 2.25 10.875C2.25 10.65 2.73375 10.1456 3.05344 9.81188C3.50531 9.34313 4.01719 8.80688 4.29 8.14688C4.55437 7.50938 4.56469 6.81938 4.57125 6.15094C4.5825 5.64844 4.59375 4.95937 4.78125 4.78125C4.96875 4.60313 5.65313 4.58719 6.15563 4.57969C6.82406 4.56938 7.51406 4.55906 8.15156 4.29844C8.80781 4.02562 9.345 3.51375 9.81656 3.06187C10.1456 2.73375 10.65 2.25 10.875 2.25C11.1 2.25 11.6044 2.73375 11.9381 3.05344C12.4069 3.50531 12.9431 4.01719 13.6031 4.29C14.2406 4.55437 14.9306 4.56469 15.5991 4.57125C16.1016 4.57875 16.7906 4.58906 16.9734 4.77281C17.1562 4.95656 17.1675 5.64469 17.175 6.14719C17.1853 6.81563 17.1956 7.50563 17.4562 8.14313C17.7291 8.79938 18.2409 9.33656 18.6928 9.80813C19.0125 10.1419 19.4963 10.6462 19.4963 10.8713C19.4963 11.0962 19.0162 11.6044 18.6966 11.9381ZM15.4209 7.82906C15.5258 7.93358 15.609 8.05777 15.6658 8.19452C15.7226 8.33126 15.7518 8.47787 15.7518 8.62594C15.7518 8.774 15.7226 8.92061 15.6658 9.05736C15.609 9.1941 15.5258 9.3183 15.4209 9.42281L10.1709 14.6728C10.0664 14.7777 9.94223 14.8609 9.80548 14.9177C9.66874 14.9745 9.52213 15.0037 9.37406 15.0037C9.226 15.0037 9.07939 14.9745 8.94264 14.9177C8.8059 14.8609 8.6817 14.7777 8.57719 14.6728L6.32719 12.4228C6.22254 12.3182 6.13953 12.1939 6.0829 12.0572C6.02626 11.9205 5.99711 11.7739 5.99711 11.6259C5.99711 11.4779 6.02626 11.3314 6.0829 11.1947C6.13953 11.0579 6.22254 10.9337 6.32719 10.8291C6.43183 10.7244 6.55607 10.6414 6.6928 10.5848C6.82952 10.5281 6.97607 10.499 7.12406 10.499C7.27206 10.499 7.4186 10.5281 7.55533 10.5848C7.69206 10.6414 7.81629 10.7244 7.92094 10.8291L9.375 12.2812L13.8291 7.82625C13.9337 7.72184 14.058 7.63908 14.1946 7.5827C14.3313 7.52633 14.4777 7.49745 14.6256 7.49771C14.7734 7.49797 14.9198 7.52737 15.0562 7.58422C15.1927 7.64108 15.3166 7.72428 15.4209 7.82906Z" fill="#F4A261"/>
</svg>
