<svg width="18" height="18" viewBox="0 0 18 18" fill="none" xmlns="http://www.w3.org/2000/svg">
<path d="M15.1875 8.15625H14.3438V3.23438C14.3438 3.0106 14.2549 2.79599 14.0966 2.63775C13.9384 2.47952 13.7238 2.39062 13.5 2.39062C13.2762 2.39062 13.0616 2.47952 12.9034 2.63775C12.7451 2.79599 12.6562 3.0106 12.6562 3.23438V8.15625H9.41203L5.16516 2.71547C5.05706 2.57697 4.90844 2.47566 4.74001 2.42569C4.57158 2.37571 4.39175 2.37956 4.22561 2.4367C4.05947 2.49383 3.91531 2.6014 3.81325 2.7444C3.71118 2.8874 3.65629 3.05869 3.65625 3.23438V8.15625H2.8125C2.58872 8.15625 2.37411 8.24514 2.21588 8.40338C2.05764 8.56161 1.96875 8.77622 1.96875 9C1.96875 9.22378 2.05764 9.43839 2.21588 9.59662C2.37411 9.75485 2.58872 9.84375 2.8125 9.84375H3.65625V14.7656C3.65625 14.9894 3.74514 15.204 3.90338 15.3622C4.06161 15.5205 4.27622 15.6094 4.5 15.6094C4.72378 15.6094 4.93839 15.5205 5.09662 15.3622C5.25486 15.204 5.34375 14.9894 5.34375 14.7656V9.84375H8.58797L12.8348 15.2845C12.9429 15.423 13.0916 15.5243 13.26 15.5743C13.4284 15.6243 13.6083 15.6204 13.7744 15.5633C13.9405 15.5062 14.0847 15.3986 14.1868 15.2556C14.2888 15.1126 14.3437 14.9413 14.3438 14.7656V9.84375H15.1875C15.4113 9.84375 15.6259 9.75485 15.7841 9.59662C15.9424 9.43839 16.0312 9.22378 16.0312 9C16.0312 8.77622 15.9424 8.56161 15.7841 8.40338C15.6259 8.24514 15.4113 8.15625 15.1875 8.15625ZM5.34375 8.15625V5.68687L7.27102 8.15625H5.34375ZM12.6562 12.3131L10.729 9.84375H12.6562V12.3131Z" fill="#656565"/>
</svg>
