<svg width="11" height="11" viewBox="0 0 11 11" fill="none" xmlns="http://www.w3.org/2000/svg">
<path d="M5.06712 2.81673e-05C5.15601 2.81751e-05 5.23935 0.0138059 5.31712 0.0413614C5.3949 0.0689169 5.46712 0.116252 5.53379 0.183363L9.93379 4.58336C10.0671 4.7167 10.1338 4.87492 10.1338 5.05803C10.1338 5.24114 10.0671 5.39958 9.93379 5.53336C9.80046 5.6667 9.6449 5.73336 9.46712 5.73336C9.28935 5.73336 9.13379 5.6667 9.00046 5.53336L5.73379 2.2667L5.73379 9.73336C5.73379 9.92225 5.66979 10.0778 5.54179 10.2C5.41379 10.3223 5.25557 10.3834 5.06712 10.3834C4.87823 10.3834 4.71979 10.3194 4.59179 10.1914C4.46379 10.0634 4.40001 9.90514 4.40046 9.71669L4.40046 2.2667L1.13379 5.53336C1.00046 5.66669 0.8449 5.73336 0.667122 5.73336C0.489344 5.73336 0.333789 5.66669 0.200456 5.53336C0.0671229 5.40003 0.000455352 5.24158 0.000455368 5.05803C0.000455384 4.87447 0.067123 4.71625 0.200456 4.58336L4.60046 0.183362C4.66712 0.116696 4.73935 0.0693612 4.81712 0.0413613C4.8949 0.0133615 4.97823 -0.000416253 5.06712 2.81673e-05Z" fill="#1EB564"/>
</svg>
