<svg width="18" height="18" viewBox="0 0 18 18" fill="none" xmlns="http://www.w3.org/2000/svg">
<path d="M16.875 14.3437H16.0312V10.125C16.2115 10.1883 16.4078 10.1886 16.5882 10.1258C16.7686 10.0631 16.9224 9.94094 17.0244 9.77943C17.1264 9.61792 17.1705 9.42658 17.1497 9.23672C17.1288 9.04685 17.0441 8.86968 16.9095 8.73419L9.99422 1.81755C9.73051 1.55392 9.37289 1.40582 9 1.40582C8.62711 1.40582 8.26949 1.55392 8.00578 1.81755L1.09055 8.73279C0.95509 8.86811 0.869688 9.04549 0.848371 9.23577C0.827055 9.42605 0.871091 9.61792 0.973247 9.77986C1.0754 9.94181 1.2296 10.0642 1.41051 10.1269C1.59142 10.1896 1.78828 10.1889 1.96875 10.125V14.3437H1.125C0.901224 14.3437 0.686612 14.4326 0.528379 14.5909C0.370145 14.7491 0.28125 14.9637 0.28125 15.1875C0.28125 15.4113 0.370145 15.6259 0.528379 15.7841C0.686612 15.9423 0.901224 16.0312 1.125 16.0312H16.875C17.0988 16.0312 17.3134 15.9423 17.4716 15.7841C17.6299 15.6259 17.7188 15.4113 17.7188 15.1875C17.7188 14.9637 17.6299 14.7491 17.4716 14.5909C17.3134 14.4326 17.0988 14.3437 16.875 14.3437ZM3.65625 8.55349L9 3.20974L14.3438 8.55349V14.3437H11.5312V10.6875C11.5312 10.4637 11.4424 10.2491 11.2841 10.0909C11.1259 9.93262 10.9113 9.84373 10.6875 9.84373H7.3125C7.08872 9.84373 6.87411 9.93262 6.71588 10.0909C6.55764 10.2491 6.46875 10.4637 6.46875 10.6875V14.3437H3.65625V8.55349ZM9.84375 14.3437H8.15625V11.5312H9.84375V14.3437Z" fill="#656565"/>
</svg>
