<svg width="24" height="20" viewBox="0 0 24 20" fill="none" xmlns="http://www.w3.org/2000/svg">
<path d="M22.125 17.2505H21V11.6255C21.2403 11.71 21.5021 11.7104 21.7426 11.6267C21.9832 11.543 22.1882 11.3801 22.3242 11.1648C22.4602 10.9495 22.519 10.6943 22.4912 10.4412C22.4634 10.188 22.3505 9.95182 22.1709 9.77116L12.9506 0.548975C12.599 0.197466 12.1222 0 11.625 0C11.1278 0 10.651 0.197466 10.2994 0.548975L1.07906 9.76929C0.898453 9.94972 0.784584 10.1862 0.756162 10.4399C0.72774 10.6936 0.786455 10.9495 0.922662 11.1654C1.05887 11.3813 1.26447 11.5445 1.50568 11.6281C1.74689 11.7117 2.00937 11.7108 2.25 11.6255V17.2505H1.125C0.826631 17.2505 0.540483 17.3691 0.329505 17.58C0.118526 17.791 0 18.0772 0 18.3755C0 18.6739 0.118526 18.9601 0.329505 19.171C0.540483 19.382 0.826631 19.5005 1.125 19.5005H22.125C22.4234 19.5005 22.7095 19.382 22.9205 19.171C23.1315 18.9601 23.25 18.6739 23.25 18.3755C23.25 18.0772 23.1315 17.791 22.9205 17.58C22.7095 17.3691 22.4234 17.2505 22.125 17.2505ZM4.5 9.53022L11.625 2.40522L18.75 9.53022V17.2505H15V12.3755C15 12.0772 14.8815 11.791 14.6705 11.58C14.4595 11.3691 14.1734 11.2505 13.875 11.2505H9.375C9.07663 11.2505 8.79048 11.3691 8.5795 11.58C8.36853 11.791 8.25 12.0772 8.25 12.3755V17.2505H4.5V9.53022ZM12.75 17.2505H10.5V13.5005H12.75V17.2505Z" fill="#F4A261"/>
</svg>
