<svg width="157" height="17" viewBox="0 0 157 17" fill="none" xmlns="http://www.w3.org/2000/svg">
<path d="M-9.10502e-05 16.2371V0.277059H2.70424L10.1079 11.5266V0.277059H12.8122V16.2371H10.1079L2.70424 4.98748V16.2371H-9.10502e-05ZM21.3525 16.5696C20.1407 16.5696 19.0767 16.3073 18.1605 15.7826C17.2442 15.258 16.5275 14.5302 16.0103 13.5992C15.5005 12.6682 15.2456 11.5968 15.2456 10.3851C15.2456 9.07723 15.4968 7.94303 15.9992 6.98248C16.5017 6.01453 17.1999 5.26456 18.094 4.73256C18.988 4.20056 20.0225 3.93456 21.1973 3.93456C22.4386 3.93456 23.4916 4.22642 24.3561 4.81014C25.2279 5.38648 25.8745 6.20295 26.2956 7.25956C26.7168 8.31617 26.8757 9.5612 26.7722 10.9946H24.1233V10.0193C24.1159 8.71887 23.8869 7.76939 23.4361 7.17089C22.9854 6.57239 22.2761 6.27314 21.3081 6.27314C20.2146 6.27314 19.4018 6.61303 18.8698 7.29281C18.3378 7.9652 18.0718 8.95162 18.0718 10.2521C18.0718 11.4638 18.3378 12.4022 18.8698 13.0672C19.4018 13.7322 20.1776 14.0647 21.1973 14.0647C21.8549 14.0647 22.4202 13.9206 22.8931 13.6325C23.3733 13.3369 23.7428 12.9121 24.0014 12.3579L26.6392 13.1559C26.1811 14.2347 25.4718 15.0733 24.5112 15.6718C23.5581 16.2703 22.5051 16.5696 21.3525 16.5696ZM17.2295 10.9946V8.97748H25.4644V10.9946H17.2295ZM33.8669 16.5696C32.3892 16.5696 31.1885 16.2371 30.2649 15.5721C29.3412 14.9071 28.7797 13.9724 28.5802 12.768L31.3067 12.3468C31.4471 12.9379 31.7574 13.4034 32.2377 13.7433C32.718 14.0832 33.3239 14.2531 34.0554 14.2531C34.6982 14.2531 35.1932 14.1275 35.5405 13.8763C35.8952 13.6177 36.0725 13.2667 36.0725 12.8234C36.0725 12.55 36.006 12.332 35.873 12.1695C35.7474 11.9995 35.4666 11.837 35.0307 11.6818C34.5947 11.5266 33.9261 11.3308 33.0246 11.0944C32.0197 10.8284 31.2217 10.5439 30.6306 10.241C30.0395 9.93064 29.6146 9.56489 29.356 9.14373C29.0974 8.72256 28.9681 8.21273 28.9681 7.61423C28.9681 6.86795 29.1639 6.21773 29.5555 5.66356C29.9471 5.10939 30.4939 4.68453 31.1959 4.38898C31.8978 4.08603 32.7254 3.93456 33.6785 3.93456C34.6095 3.93456 35.4334 4.07864 36.1501 4.36681C36.8742 4.65498 37.4579 5.06506 37.9013 5.59706C38.3446 6.12906 38.618 6.75342 38.7214 7.47014L35.9949 7.95781C35.9284 7.44798 35.6957 7.04528 35.2967 6.74973C34.9051 6.45417 34.3805 6.28792 33.7229 6.25098C33.0948 6.21403 32.5887 6.31009 32.2044 6.53914C31.8202 6.76081 31.6281 7.07484 31.6281 7.48123C31.6281 7.71028 31.7057 7.90609 31.8609 8.06864C32.016 8.2312 32.3264 8.39375 32.7919 8.55631C33.2647 8.71887 33.9667 8.91837 34.8977 9.15481C35.8509 9.39864 36.6119 9.67942 37.1809 9.99714C37.7572 10.3075 38.171 10.6806 38.4222 11.1166C38.6808 11.5525 38.8101 12.0808 38.8101 12.7015C38.8101 13.9059 38.3705 14.8516 37.4912 15.5388C36.6193 16.226 35.4112 16.5696 33.8669 16.5696ZM48.2535 16.2371C47.4628 16.3848 46.687 16.4476 45.926 16.4255C45.1723 16.4107 44.4962 16.274 43.8977 16.0154C43.2992 15.7494 42.8448 15.3319 42.5345 14.763C42.2611 14.2458 42.117 13.7174 42.1022 13.1781C42.0874 12.6387 42.08 12.0291 42.08 11.3493V0.942058H44.74V11.1941C44.74 11.6744 44.7437 12.0956 44.7511 12.4576C44.7659 12.8197 44.8435 13.1153 44.9839 13.3443C45.2499 13.7876 45.6747 14.0352 46.2585 14.0869C46.8422 14.1386 47.5072 14.1091 48.2535 13.9982V16.2371ZM39.9077 6.36181V4.26706H48.2535V6.36181H39.9077ZM50.8274 16.2371V0.277059H60.4366V2.94814H53.4985V6.92706H59.1066V9.58706H53.4985V16.2371H50.8274ZM62.6519 2.44939V-2.40878e-05H65.323V2.44939H62.6519ZM62.6519 16.2371V4.26706H65.323V16.2371H62.6519ZM76.9222 16.2371V10.4737C76.9222 10.0969 76.8964 9.67942 76.8446 9.22131C76.7929 8.7632 76.671 8.32356 76.4789 7.90239C76.2942 7.47384 76.0134 7.12286 75.6366 6.84948C75.2671 6.57609 74.7647 6.43939 74.1292 6.43939C73.7893 6.43939 73.4531 6.49481 73.1206 6.60564C72.7881 6.71648 72.4852 6.90859 72.2118 7.18198C71.9458 7.44798 71.7315 7.81742 71.569 8.29031C71.4064 8.75581 71.3251 9.35431 71.3251 10.0858L69.7402 9.40973C69.7402 8.39006 69.936 7.46645 70.3276 6.63889C70.7266 5.81134 71.3104 5.15373 72.0788 4.66606C72.8473 4.171 73.793 3.92348 74.9161 3.92348C75.8028 3.92348 76.5343 4.07125 77.1106 4.36681C77.687 4.66236 78.1451 5.0392 78.485 5.49731C78.8249 5.95542 79.0761 6.44309 79.2386 6.96031C79.4012 7.47753 79.5046 7.96889 79.549 8.43439C79.6007 8.8925 79.6266 9.26564 79.6266 9.55381V16.2371H76.9222ZM68.6208 16.2371V4.26706H71.0037V7.97998H71.3251V16.2371H68.6208ZM87.1231 16.5696C86.0221 16.5696 85.0616 16.2925 84.2414 15.7383C83.4212 15.1841 82.7858 14.4305 82.3351 13.4773C81.8843 12.5241 81.659 11.4491 81.659 10.2521C81.659 9.04028 81.8843 7.9615 82.3351 7.01573C82.7932 6.06256 83.4397 5.31259 84.2746 4.76581C85.1096 4.21164 86.0923 3.93456 87.2228 3.93456C88.3607 3.93456 89.3139 4.21164 90.0823 4.76581C90.8581 5.31259 91.4456 6.06256 91.8446 7.01573C92.2436 7.96889 92.4431 9.04767 92.4431 10.2521C92.4431 11.4417 92.2436 12.5168 91.8446 13.4773C91.4456 14.4305 90.8507 15.1841 90.0601 15.7383C89.2695 16.2925 88.2905 16.5696 87.1231 16.5696ZM87.5331 14.1756C88.2499 14.1756 88.8262 14.013 89.2621 13.6879C89.7055 13.3554 90.0269 12.8936 90.2264 12.3025C90.4333 11.7114 90.5367 11.0279 90.5367 10.2521C90.5367 9.46884 90.4333 8.78537 90.2264 8.20164C90.0269 7.61053 89.7129 7.15242 89.2843 6.82731C88.8557 6.49481 88.3016 6.32856 87.6218 6.32856C86.9051 6.32856 86.314 6.50589 85.8485 6.86056C85.383 7.20784 85.0394 7.68073 84.8177 8.27923C84.5961 8.87034 84.4852 9.52795 84.4852 10.2521C84.4852 10.9836 84.5924 11.6486 84.8066 12.2471C85.0283 12.8382 85.3645 13.3074 85.8152 13.6546C86.2659 14.0019 86.8386 14.1756 87.5331 14.1756ZM90.5367 16.2371V7.83589H90.2042V0.277059H92.8975V16.2371H90.5367ZM101.447 16.5696C100.235 16.5696 99.1711 16.3073 98.2549 15.7826C97.3387 15.258 96.6219 14.5302 96.1047 13.5992C95.5949 12.6682 95.34 11.5968 95.34 10.3851C95.34 9.07723 95.5912 7.94303 96.0936 6.98248C96.5961 6.01453 97.2943 5.26456 98.1884 4.73256C99.0824 4.20056 100.117 3.93456 101.292 3.93456C102.533 3.93456 103.586 4.22642 104.45 4.81014C105.322 5.38648 105.969 6.20295 106.39 7.25956C106.811 8.31617 106.97 9.5612 106.867 10.9946H104.218V10.0193C104.21 8.71887 103.981 7.76939 103.531 7.17089C103.08 6.57239 102.37 6.27314 101.403 6.27314C100.309 6.27314 99.4962 6.61303 98.9642 7.29281C98.4322 7.9652 98.1662 8.95162 98.1662 10.2521C98.1662 11.4638 98.4322 12.4022 98.9642 13.0672C99.4962 13.7322 100.272 14.0647 101.292 14.0647C101.949 14.0647 102.515 13.9206 102.987 13.6325C103.468 13.3369 103.837 12.9121 104.096 12.3579L106.734 13.1559C106.276 14.2347 105.566 15.0733 104.606 15.6718C103.652 16.2703 102.6 16.5696 101.447 16.5696ZM97.3239 10.9946V8.97748H105.559V10.9946H97.3239ZM109.34 16.2371V4.26706H111.7V7.18198L111.412 6.80514C111.56 6.40614 111.756 6.04409 112 5.71898C112.251 5.38648 112.55 5.11309 112.897 4.89881C113.193 4.69931 113.518 4.54414 113.873 4.43331C114.235 4.31509 114.604 4.24489 114.981 4.22273C115.358 4.19317 115.724 4.20795 116.078 4.26706V6.76081C115.724 6.65737 115.314 6.62412 114.848 6.66106C114.39 6.698 113.976 6.82731 113.607 7.04898C113.237 7.24848 112.934 7.50339 112.698 7.81373C112.469 8.12406 112.299 8.47873 112.188 8.87773C112.077 9.26934 112.022 9.6942 112.022 10.1523V16.2371H109.34ZM122.631 16.2371V0.277059H129.226C129.381 0.277059 129.58 0.284448 129.824 0.299225C130.068 0.306615 130.293 0.328781 130.5 0.365726C131.424 0.506114 132.185 0.812753 132.783 1.28564C133.389 1.75853 133.836 2.35703 134.124 3.08114C134.42 3.79787 134.568 4.59586 134.568 5.47514C134.568 6.34703 134.42 7.14503 134.124 7.86914C133.829 8.58587 133.378 9.18067 132.772 9.65356C132.174 10.1264 131.416 10.4331 130.5 10.5735C130.293 10.603 130.064 10.6252 129.813 10.64C129.569 10.6548 129.373 10.6621 129.226 10.6621H125.302V16.2371H122.631ZM125.302 8.16839H129.115C129.262 8.16839 129.429 8.161 129.613 8.14623C129.798 8.13145 129.968 8.10189 130.123 8.05756C130.567 7.94673 130.914 7.75092 131.165 7.47014C131.424 7.18937 131.605 6.87164 131.708 6.51698C131.819 6.16231 131.874 5.81503 131.874 5.47514C131.874 5.13525 131.819 4.78798 131.708 4.43331C131.605 4.07125 131.424 3.74984 131.165 3.46906C130.914 3.18828 130.567 2.99248 130.123 2.88164C129.968 2.83731 129.798 2.81145 129.613 2.80406C129.429 2.78928 129.262 2.78189 129.115 2.78189H125.302V8.16839ZM136.788 16.2371V4.26706H139.149V7.18198L138.861 6.80514C139.009 6.40614 139.204 6.04409 139.448 5.71898C139.699 5.38648 139.999 5.11309 140.346 4.89881C140.641 4.69931 140.967 4.54414 141.321 4.43331C141.683 4.31509 142.053 4.24489 142.43 4.22273C142.806 4.19317 143.172 4.20795 143.527 4.26706V6.76081C143.172 6.65737 142.762 6.62412 142.297 6.66106C141.838 6.698 141.425 6.82731 141.055 7.04898C140.686 7.24848 140.383 7.50339 140.146 7.81373C139.917 8.12406 139.747 8.47873 139.637 8.87773C139.526 9.26934 139.47 9.6942 139.47 10.1523V16.2371H136.788ZM150.712 16.5696C149.515 16.5696 148.47 16.2999 147.576 15.7605C146.681 15.2211 145.987 14.4785 145.492 13.5327C145.004 12.5796 144.76 11.486 144.76 10.2521C144.76 8.99595 145.012 7.895 145.514 6.94923C146.016 6.00345 146.715 5.26456 147.609 4.73256C148.503 4.20056 149.537 3.93456 150.712 3.93456C151.917 3.93456 152.966 4.20425 153.86 4.74364C154.754 5.28303 155.448 6.02931 155.943 6.98248C156.439 7.92825 156.686 9.01812 156.686 10.2521C156.686 11.4934 156.435 12.5906 155.932 13.5438C155.437 14.4896 154.743 15.2322 153.849 15.7716C152.955 16.3036 151.909 16.5696 150.712 16.5696ZM150.712 14.0647C151.776 14.0647 152.567 13.7101 153.084 13.0007C153.601 12.2914 153.86 11.3752 153.86 10.2521C153.86 9.092 153.597 8.16839 153.073 7.48123C152.548 6.78667 151.761 6.43939 150.712 6.43939C149.995 6.43939 149.404 6.60195 148.939 6.92706C148.481 7.24478 148.141 7.69181 147.919 8.26814C147.697 8.83709 147.587 9.49839 147.587 10.2521C147.587 11.4121 147.849 12.3394 148.374 13.034C148.906 13.7211 149.685 14.0647 150.712 14.0647Z" fill="#1A3C34"/>
</svg>
