<svg width="20" height="20" viewBox="0 0 20 20" fill="none" xmlns="http://www.w3.org/2000/svg">
<path d="M18.375 12.6371L13.9603 10.658L13.9434 10.6505C13.6565 10.5268 13.3431 10.477 13.0319 10.5057C12.7208 10.5343 12.4217 10.6405 12.1622 10.8146C12.1258 10.8389 12.0908 10.8652 12.0572 10.8933L9.96563 12.6746C8.74688 12.0136 7.48782 10.7649 6.82594 9.56115L8.61282 7.43678C8.64154 7.40249 8.66816 7.36648 8.69251 7.32896C8.86199 7.07036 8.96489 6.77385 8.99204 6.46585C9.01919 6.15785 8.96976 5.84792 8.84813 5.56365C8.84524 5.55821 8.84274 5.55257 8.84063 5.54678L6.86251 1.12459C6.70013 0.754767 6.42301 0.447046 6.07216 0.246966C5.7213 0.0468857 5.31535 -0.0349215 4.91438 0.0136508C3.55348 0.192426 2.30418 0.86047 1.39982 1.89301C0.495463 2.92556 -0.00212025 4.252 6.79132e-06 5.62459C6.79132e-06 13.2755 6.22407 19.4996 13.875 19.4996C15.2476 19.5017 16.574 19.0041 17.6066 18.0998C18.6391 17.1954 19.3072 15.9461 19.4859 14.5852C19.5345 14.1842 19.4527 13.7783 19.2526 13.4274C19.0525 13.0766 18.7448 12.7995 18.375 12.6371ZM13.875 17.2496C10.793 17.2459 7.8383 16.0199 5.659 13.8406C3.4797 11.6613 2.25373 8.70659 2.25001 5.62459C2.24786 4.84786 2.51155 4.09379 2.99727 3.48767C3.48299 2.88154 4.16148 2.45987 4.92001 2.29271L6.68438 6.23021L4.88813 8.36959C4.8591 8.40419 4.83217 8.4405 4.80751 8.47834C4.63046 8.74886 4.52637 9.06056 4.50534 9.38318C4.48432 9.7058 4.54707 10.0284 4.68751 10.3196C5.57063 12.1271 7.39032 13.9346 9.21657 14.8196C9.50972 14.9586 9.83393 15.0191 10.1575 14.9953C10.481 14.9714 10.7929 14.8641 11.0625 14.6837C11.0988 14.6592 11.1335 14.6326 11.1666 14.604L13.2694 12.8162L17.2069 14.5796C17.0397 15.3381 16.618 16.0166 16.0119 16.5023C15.4058 16.988 14.6517 17.2517 13.875 17.2496Z" fill="white"/>
</svg>
