<svg width="21" height="21" viewBox="0 0 21 21" fill="none" xmlns="http://www.w3.org/2000/svg">
<path d="M6.375 12.1303C6.67337 12.1303 6.95952 12.0118 7.1705 11.8008C7.38147 11.5898 7.5 11.3037 7.5 11.0053V10.875H12.75V11.1834C12.75 11.4818 12.8685 11.768 13.0795 11.9789C13.2905 12.1899 13.5766 12.3084 13.875 12.3084C14.1734 12.3084 14.4595 12.1899 14.6705 11.9789C14.8815 11.768 15 11.4818 15 11.1834V1.125C15 0.826631 14.8815 0.540483 14.6705 0.329505C14.4595 0.118526 14.1734 0 13.875 0C13.5766 0 13.2905 0.118526 13.0795 0.329505C12.8685 0.540483 12.75 0.826631 12.75 1.125V1.875H7.5V1.125C7.5 0.826631 7.38147 0.540483 7.1705 0.329505C6.95952 0.118526 6.67337 0 6.375 0C6.07663 0 5.79048 0.118526 5.5795 0.329505C5.36853 0.540483 5.25 0.826631 5.25 1.125V11.0053C5.25 11.3037 5.36853 11.5898 5.5795 11.8008C5.79048 12.0118 6.07663 12.1303 6.375 12.1303ZM7.5 8.625V7.5H12.75V8.625H7.5ZM12.75 4.125V5.25H7.5V4.125H12.75ZM0 13.5C0 13.2016 0.118526 12.9155 0.329505 12.7045C0.540483 12.4935 0.826631 12.375 1.125 12.375C2.59031 12.375 3.375 12.8953 3.99937 13.3125C4.50562 13.65 4.84312 13.875 5.625 13.875C6.40688 13.875 6.74344 13.6519 7.25062 13.3125C7.87781 12.8934 8.65687 12.375 10.1241 12.375C11.5912 12.375 12.3741 12.8953 12.9984 13.3125C13.5056 13.65 13.8422 13.875 14.625 13.875C15.4078 13.875 15.7444 13.6519 16.2506 13.3125C16.8787 12.8934 17.6569 12.375 19.125 12.375C19.4234 12.375 19.7095 12.4935 19.9205 12.7045C20.1315 12.9155 20.25 13.2016 20.25 13.5C20.25 13.7984 20.1315 14.0845 19.9205 14.2955C19.7095 14.5065 19.4234 14.625 19.125 14.625C18.3403 14.625 18.0056 14.8481 17.4984 15.1875C16.8713 15.6066 16.0922 16.125 14.625 16.125C13.1578 16.125 12.375 15.6047 11.7506 15.1875C11.2434 14.85 10.9069 14.625 10.1241 14.625C9.34125 14.625 9.00562 14.8481 8.49844 15.1875C7.87125 15.6066 7.09219 16.125 5.625 16.125C4.15781 16.125 3.375 15.6047 2.75063 15.1875C2.24437 14.85 1.90688 14.625 1.125 14.625C0.826631 14.625 0.540483 14.5065 0.329505 14.2955C0.118526 14.0845 0 13.7984 0 13.5ZM20.25 17.625C20.25 17.9234 20.1315 18.2095 19.9205 18.4205C19.7095 18.6315 19.4234 18.75 19.125 18.75C18.3403 18.75 18.0056 18.9731 17.4984 19.3125C16.8713 19.7316 16.0922 20.25 14.625 20.25C13.1578 20.25 12.375 19.7297 11.7506 19.3125C11.2434 18.975 10.9069 18.75 10.1241 18.75C9.34125 18.75 9.00562 18.9731 8.49844 19.3125C7.87125 19.7316 7.09219 20.25 5.625 20.25C4.15781 20.25 3.375 19.7297 2.75063 19.3125C2.24437 18.975 1.90688 18.75 1.125 18.75C0.826631 18.75 0.540483 18.6315 0.329505 18.4205C0.118526 18.2095 0 17.9234 0 17.625C0 17.3266 0.118526 17.0405 0.329505 16.8295C0.540483 16.6185 0.826631 16.5 1.125 16.5C2.59031 16.5 3.375 17.0203 3.99937 17.4375C4.50562 17.775 4.84312 18 5.625 18C6.40688 18 6.74344 17.7769 7.25062 17.4375C7.87781 17.0184 8.65687 16.5 10.1241 16.5C11.5912 16.5 12.3741 17.0203 12.9984 17.4375C13.5056 17.775 13.8422 18 14.625 18C15.4078 18 15.7444 17.7769 16.2506 17.4375C16.8787 17.0184 17.6569 16.5 19.125 16.5C19.4234 16.5 19.7095 16.6185 19.9205 16.8295C20.1315 17.0405 20.25 17.3266 20.25 17.625Z" fill="black"/>
</svg>
