<svg width="20" height="20" viewBox="0 0 20 20" fill="none" xmlns="http://www.w3.org/2000/svg">
<path d="M9.625 0C4.30977 0 0 4.30977 0 9.625C0 14.9402 4.30977 19.25 9.625 19.25C14.9402 19.25 19.25 14.9402 19.25 9.625C19.25 4.30977 14.9402 0 9.625 0ZM13.75 10.1406C13.75 10.2352 13.6727 10.3125 13.5781 10.3125H10.3125V13.5781C10.3125 13.6727 10.2352 13.75 10.1406 13.75H9.10938C9.01484 13.75 8.9375 13.6727 8.9375 13.5781V10.3125H5.67188C5.57734 10.3125 5.5 10.2352 5.5 10.1406V9.10938C5.5 9.01484 5.57734 8.9375 5.67188 8.9375H8.9375V5.67188C8.9375 5.57734 9.01484 5.5 9.10938 5.5H10.1406C10.2352 5.5 10.3125 5.57734 10.3125 5.67188V8.9375H13.5781C13.6727 8.9375 13.75 9.01484 13.75 9.10938V10.1406Z" fill="#4F887B"/>
</svg>
