<svg width="11" height="11" viewBox="0 0 11 11" fill="none" xmlns="http://www.w3.org/2000/svg">
<path d="M5.06667 10.3833C4.97778 10.3833 4.89444 10.3696 4.81667 10.342C4.73889 10.3144 4.66667 10.2671 4.6 10.2L0.2 5.8C0.0666665 5.66667 0 5.50844 0 5.32533C0 5.14222 0.0666665 4.98378 0.2 4.85C0.333333 4.71667 0.488889 4.65 0.666667 4.65C0.844444 4.65 1 4.71667 1.13333 4.85L4.4 8.11667L4.4 0.65C4.4 0.461111 4.464 0.305556 4.592 0.183333C4.72 0.0611112 4.87822 0 5.06667 0C5.25556 0 5.414 0.0640001 5.542 0.192C5.67 0.32 5.73378 0.478222 5.73333 0.666667L5.73333 8.11667L9 4.85C9.13333 4.71667 9.28889 4.65 9.46667 4.65C9.64445 4.65 9.8 4.71667 9.93333 4.85C10.0667 4.98333 10.1333 5.14178 10.1333 5.32533C10.1333 5.50889 10.0667 5.66711 9.93333 5.8L5.53333 10.2C5.46667 10.2667 5.39444 10.314 5.31667 10.342C5.23889 10.37 5.15556 10.3838 5.06667 10.3833Z" fill="#EF4343"/>
</svg>
