<svg width="51" height="51" viewBox="0 0 51 51" fill="none" xmlns="http://www.w3.org/2000/svg">
<path d="M36.6774 17.6977C36.9396 17.9589 37.1476 18.2694 37.2895 18.6113C37.4315 18.9532 37.5046 19.3197 37.5046 19.6898C37.5046 20.06 37.4315 20.4265 37.2895 20.7684C37.1476 21.1103 36.9396 21.4207 36.6774 21.682L23.5524 34.807C23.2911 35.0692 22.9806 35.2773 22.6387 35.4192C22.2969 35.5612 21.9303 35.6342 21.5602 35.6342C21.19 35.6342 20.8235 35.5612 20.4816 35.4192C20.1397 35.2773 19.8293 35.0692 19.568 34.807L13.943 29.182C13.6814 28.9204 13.4738 28.6098 13.3322 28.268C13.1907 27.9262 13.1178 27.5598 13.1178 27.1898C13.1178 26.8199 13.1907 26.4535 13.3322 26.1117C13.4738 25.7699 13.6814 25.4593 13.943 25.1977C14.2046 24.936 14.5152 24.7285 14.857 24.5869C15.1988 24.4453 15.5652 24.3725 15.9352 24.3725C16.3051 24.3725 16.6715 24.4453 17.0133 24.5869C17.3552 24.7285 17.6657 24.936 17.9274 25.1977L21.5625 28.8281L32.6977 17.6906C32.9593 17.4296 33.2699 17.2227 33.6116 17.0818C33.9533 16.9408 34.3194 16.8686 34.689 16.8693C35.0586 16.8699 35.4244 16.9434 35.7656 17.0856C36.1068 17.2277 36.4166 17.4357 36.6774 17.6977ZM50.625 25.3125C50.625 30.3188 49.1405 35.2128 46.3591 39.3754C43.5777 43.538 39.6244 46.7824 34.9992 48.6982C30.3739 50.614 25.2844 51.1153 20.3743 50.1386C15.4641 49.1619 10.9539 46.7512 7.41387 43.2111C3.87386 39.6711 1.46307 35.1609 0.486384 30.2507C-0.490304 25.3406 0.0109676 20.2511 1.92681 15.6258C3.84265 11.0006 7.08702 7.0473 11.2496 4.26593C15.4123 1.48455 20.3062 0 25.3125 0C32.0235 0.00744427 38.4575 2.67668 43.2029 7.42208C47.9483 12.1675 50.6176 18.6015 50.625 25.3125ZM45 25.3125C45 21.4187 43.8454 17.6123 41.6821 14.3747C39.5188 11.1371 36.444 8.61372 32.8466 7.12362C29.2492 5.63352 25.2907 5.24364 21.4717 6.00329C17.6527 6.76294 14.1447 8.63799 11.3913 11.3913C8.638 14.1447 6.76295 17.6527 6.0033 21.4717C5.24365 25.2907 5.63353 29.2492 7.12363 32.8466C8.61373 36.444 11.1371 39.5188 14.3747 41.6821C17.6123 43.8453 21.4187 45 25.3125 45C30.5322 44.9944 35.5366 42.9184 39.2275 39.2275C42.9184 35.5366 44.9944 30.5322 45 25.3125Z" fill="#1A3C34"/>
</svg>
