<svg width="24" height="24" viewBox="0 0 24 24" fill="none" xmlns="http://www.w3.org/2000/svg">
<ellipse cx="8.99707" cy="7" rx="4" ry="4" stroke="#FF0000" stroke-width="1.65" stroke-linecap="round" stroke-linejoin="round"/>
<ellipse cx="8.99707" cy="7" rx="4" ry="4" stroke="#FF0000" stroke-width="1.65" stroke-linecap="round" stroke-linejoin="round"/>
<path d="M3 21V19C3 16.7909 4.79086 15 7 15H11C13.2091 15 15 16.7909 15 19V21" stroke="#FF0000" stroke-width="1.65" stroke-linecap="round" stroke-linejoin="round"/>
<path d="M3 21V19C3 16.7909 4.79086 15 7 15H11C13.2091 15 15 16.7909 15 19V21" stroke="#FF0000" stroke-width="1.65" stroke-linecap="round" stroke-linejoin="round"/>
<path d="M16.0029 3.12891C17.7728 3.58208 19.0108 5.1769 19.0108 7.00391C19.0108 8.83092 17.7728 10.4257 16.0029 10.8789" stroke="#FF0000" stroke-width="1.65" stroke-linecap="round" stroke-linejoin="round"/>
<path d="M16.0029 3.12891C17.7728 3.58208 19.0108 5.1769 19.0108 7.00391C19.0108 8.83092 17.7728 10.4257 16.0029 10.8789" stroke="#FF0000" stroke-width="1.65" stroke-linecap="round" stroke-linejoin="round"/>
<path d="M21 21V19C20.9896 17.1846 19.7578 15.6038 18 15.15" stroke="#FF0000" stroke-width="1.65" stroke-linecap="round" stroke-linejoin="round"/>
<path d="M21 21V19C20.9896 17.1846 19.7578 15.6038 18 15.15" stroke="#FF0000" stroke-width="1.65" stroke-linecap="round" stroke-linejoin="round"/>
</svg>
