<svg width="18" height="13" viewBox="0 0 18 13" fill="none" xmlns="http://www.w3.org/2000/svg">
<path d="M14.0625 2.25H1.6875V0.84375C1.6875 0.619974 1.59861 0.405362 1.44037 0.247129C1.28214 0.0888947 1.06753 0 0.84375 0C0.619974 0 0.405362 0.0888947 0.247129 0.247129C0.0888949 0.405362 0 0.619974 0 0.84375V12.0938C0 12.3175 0.0888949 12.5321 0.247129 12.6904C0.405362 12.8486 0.619974 12.9375 0.84375 12.9375C1.06753 12.9375 1.28214 12.8486 1.44037 12.6904C1.59861 12.5321 1.6875 12.3175 1.6875 12.0938V10.125H15.4688V12.0938C15.4688 12.3175 15.5576 12.5321 15.7159 12.6904C15.8741 12.8486 16.0887 12.9375 16.3125 12.9375C16.5363 12.9375 16.7509 12.8486 16.9091 12.6904C17.0674 12.5321 17.1562 12.3175 17.1562 12.0938V5.34375C17.1553 4.52352 16.8291 3.73715 16.2491 3.15717C15.6691 2.57718 14.8827 2.25093 14.0625 2.25ZM6.1875 8.4375H1.6875V3.9375H6.1875V8.4375ZM15.4688 8.4375H7.875V3.9375H14.0625C14.4355 3.9375 14.7931 4.08566 15.0569 4.34938C15.3206 4.6131 15.4688 4.97079 15.4688 5.34375V8.4375Z" fill="#403F3F"/>
</svg>
